<?xml version="1.0" encoding="UTF-8" standalone="no"?>
<!-- Created with Inkscape (http://www.inkscape.org/) -->

<svg
   xmlns:dc="http://purl.org/dc/elements/1.1/"
   xmlns:cc="http://creativecommons.org/ns#"
   xmlns:rdf="http://www.w3.org/1999/02/22-rdf-syntax-ns#"
   xmlns:svg="http://www.w3.org/2000/svg"
   xmlns="http://www.w3.org/2000/svg"
   xmlns:xlink="http://www.w3.org/1999/xlink"
   xmlns:sodipodi="http://sodipodi.sourceforge.net/DTD/sodipodi-0.dtd"
   xmlns:inkscape="http://www.inkscape.org/namespaces/inkscape"
   width="307.10794mm"
   height="133.89972mm"
   viewBox="0 0 307.10794 133.89972"
   version="1.1"
   id="svg4404"
   inkscape:version="0.92.2 2405546, 2018-03-11"
   sodipodi:docname="print1.svg">
  <defs
     id="defs4398">
    <color-profile
       name="Blue"
       xlink:href="/usr/share/color/icc/colord/Bluish.icc"
       id="color-profile4646" />
    <clipPath
       id="clipPath3748"
       clipPathUnits="userSpaceOnUse">
      <path
         inkscape:connector-curvature="0"
         id="path3746"
         d="M 0,379.554 H 435.563 V 0 H 0 Z" />
    </clipPath>
    <clipPath
       id="clipPath4666"
       clipPathUnits="userSpaceOnUse">
      <path
         inkscape:connector-curvature="0"
         id="path4664"
         d="M 0,379.493 H 435.563 V 0 H 0 Z" />
    </clipPath>
  </defs>
  <sodipodi:namedview
     id="base"
     pagecolor="#ffffff"
     bordercolor="#666666"
     borderopacity="1.0"
     inkscape:pageopacity="0.0"
     inkscape:pageshadow="2"
     inkscape:zoom="2"
     inkscape:cx="629.66009"
     inkscape:cy="215.88523"
     inkscape:document-units="mm"
     inkscape:current-layer="layer1"
     showgrid="false"
     inkscape:window-width="2560"
     inkscape:window-height="1440"
     inkscape:window-x="0"
     inkscape:window-y="0"
     inkscape:window-maximized="1">
    <inkscape:grid
       type="xygrid"
       id="grid4788"
       originx="-204.1663"
       originy="177.7383" />
  </sodipodi:namedview>
  <metadata
     id="metadata4401">
    <rdf:RDF>
      <cc:Work
         rdf:about="">
        <dc:format>image/svg+xml</dc:format>
        <dc:type
           rdf:resource="http://purl.org/dc/dcmitype/StillImage" />
        <dc:title></dc:title>
      </cc:Work>
    </rdf:RDF>
  </metadata>
  <g
     inkscape:label="Layer 1"
     inkscape:groupmode="layer"
     id="layer1"
     transform="translate(-204.16629,-340.83856)">
    <path
       inkscape:connector-curvature="0"
       id="path3752"
       style="fill:none;stroke:#0000ff;stroke-width:0.01;stroke-linecap:round;stroke-linejoin:round;stroke-miterlimit:4;stroke-dasharray:none;stroke-opacity:1"
       d="m 362.6776,436.81024 c 0,0.57997 -0.47025,1.04987 -1.04987,1.04987 -0.57996,0 -1.05022,-0.4699 -1.05022,-1.04987 0,-0.57997 0.47026,-1.04987 1.05022,-1.04987 0.57962,0 1.04987,0.4699 1.04987,1.04987 z" />
    <path
       inkscape:connector-curvature="0"
       id="path3756"
       style="fill:none;stroke:#0000ff;stroke-width:0.01;stroke-linecap:round;stroke-linejoin:round;stroke-miterlimit:4;stroke-dasharray:none;stroke-opacity:1"
       d="m 428.44861,455.67672 c 0,0.57997 -0.47025,1.04987 -1.04987,1.04987 -0.57996,0 -1.05022,-0.4699 -1.05022,-1.04987 0,-0.57997 0.47026,-1.04987 1.05022,-1.04987 0.57962,0 1.04987,0.4699 1.04987,1.04987 z" />
    <path
       inkscape:connector-curvature="0"
       id="path3760"
       style="fill:none;stroke:#0000ff;stroke-width:0.01;stroke-linecap:round;stroke-linejoin:round;stroke-miterlimit:4;stroke-dasharray:none;stroke-opacity:1"
       d="m 484.47413,470.43437 c 0,0.57997 -0.47025,1.04987 -1.04987,1.04987 -0.57996,0 -1.05022,-0.4699 -1.05022,-1.04987 0,-0.57997 0.47026,-1.04987 1.05022,-1.04987 0.57962,0 1.04987,0.4699 1.04987,1.04987 z" />
    <path
       inkscape:connector-curvature="0"
       id="path3764"
       style="fill:none;stroke:#0000ff;stroke-width:0.01;stroke-linecap:round;stroke-linejoin:round;stroke-miterlimit:4;stroke-dasharray:none;stroke-opacity:1"
       d="m 508.01471,429.54154 c 0,0.57997 -0.47025,1.04987 -1.04987,1.04987 -0.57996,0 -1.05022,-0.4699 -1.05022,-1.04987 0,-0.57997 0.47026,-1.04987 1.05022,-1.04987 0.57962,0 1.04987,0.4699 1.04987,1.04987 z" />
    <path
       inkscape:connector-curvature="0"
       id="path3768"
       style="fill:none;stroke:#0000ff;stroke-width:0.01;stroke-linecap:round;stroke-linejoin:round;stroke-miterlimit:4;stroke-dasharray:none;stroke-opacity:1"
       d="m 481.62986,354.55788 c 0,0.57997 -0.47025,1.04987 -1.04987,1.04987 -0.57996,0 -1.05022,-0.4699 -1.05022,-1.04987 0,-0.57997 0.47026,-1.04987 1.05022,-1.04987 0.57962,0 1.04987,0.4699 1.04987,1.04987 z" />
    <path
       inkscape:connector-curvature="0"
       id="path3772"
       style="fill:none;stroke:#0000ff;stroke-width:0.01;stroke-linecap:round;stroke-linejoin:round;stroke-miterlimit:4;stroke-dasharray:none;stroke-opacity:1"
       d="m 461.07223,346.37213 c 0,0.57997 -0.47025,1.04987 -1.04987,1.04987 -0.57996,0 -1.05022,-0.4699 -1.05022,-1.04987 0,-0.57997 0.47026,-1.04987 1.05022,-1.04987 0.57962,0 1.04987,0.4699 1.04987,1.04987 z" />
    <path
       inkscape:connector-curvature="0"
       id="path3776"
       style="fill:none;stroke:#0000ff;stroke-width:0.01;stroke-linecap:round;stroke-linejoin:round;stroke-miterlimit:4;stroke-dasharray:none;stroke-opacity:1"
       d="m 411.19188,345.7421 c 0,0.57997 -0.47025,1.04987 -1.04987,1.04987 -0.57996,0 -1.05022,-0.4699 -1.05022,-1.04987 0,-0.57997 0.47026,-1.04987 1.05022,-1.04987 0.57962,0 1.04987,0.4699 1.04987,1.04987 z" />
    <path
       inkscape:connector-curvature="0"
       id="path3780"
       style="fill:none;stroke:#0000ff;stroke-width:0.01;stroke-linecap:round;stroke-linejoin:round;stroke-miterlimit:4;stroke-dasharray:none;stroke-opacity:1"
       d="m 362.47917,356.53125 c 0,0.57997 -0.47025,1.04987 -1.04987,1.04987 -0.57996,0 -1.05022,-0.4699 -1.05022,-1.04987 0,-0.57997 0.47026,-1.04987 1.05022,-1.04987 0.57962,0 1.04987,0.4699 1.04987,1.04987 z" />
    <path
       inkscape:connector-curvature="0"
       id="path3784"
       style="fill:none;stroke:#0000ff;stroke-width:0.01;stroke-linecap:round;stroke-linejoin:round;stroke-miterlimit:4;stroke-dasharray:none;stroke-opacity:1"
       d="m 383.82222,377.52858 c 0,0.57997 -0.47025,1.04987 -1.04987,1.04987 -0.57996,0 -1.05022,-0.4699 -1.05022,-1.04987 0,-0.57997 0.47026,-1.04987 1.05022,-1.04987 0.57962,0 1.04987,0.4699 1.04987,1.04987 z" />
    <path
       inkscape:connector-curvature="0"
       id="path3788"
       style="fill:none;stroke:#0000ff;stroke-width:0.01;stroke-linecap:round;stroke-linejoin:round;stroke-miterlimit:4;stroke-dasharray:none;stroke-opacity:1"
       d="m 383.82222,415.62858 c 0,0.57997 -0.47025,1.04987 -1.04987,1.04987 -0.57996,0 -1.05022,-0.4699 -1.05022,-1.04987 0,-0.57997 0.47026,-1.04987 1.05022,-1.04987 0.57962,0 1.04987,0.4699 1.04987,1.04987 z" />
    <path
       inkscape:connector-curvature="0"
       id="path3792"
       style="fill:none;stroke:#0000ff;stroke-width:0.01;stroke-linecap:round;stroke-linejoin:round;stroke-miterlimit:4;stroke-dasharray:none;stroke-opacity:1"
       d="m 460.02222,412.05685 c 0,0.57997 -0.47025,1.04987 -1.04987,1.04987 -0.57996,0 -1.05022,-0.4699 -1.05022,-1.04987 0,-0.57997 0.47026,-1.04987 1.05022,-1.04987 0.57962,0 1.04987,0.4699 1.04987,1.04987 z" />
    <path
       inkscape:connector-curvature="0"
       id="path3796"
       style="fill:none;stroke:#0000ff;stroke-width:0.01;stroke-linecap:round;stroke-linejoin:round;stroke-miterlimit:4;stroke-dasharray:none;stroke-opacity:1"
       d="m 460.02222,373.95681 c 0,0.57997 -0.47025,1.04987 -1.04987,1.04987 -0.57996,0 -1.05022,-0.4699 -1.05022,-1.04987 0,-0.57997 0.47026,-1.04987 1.05022,-1.04987 0.57962,0 1.04987,0.4699 1.04987,1.04987 z" />
    <path
       inkscape:connector-curvature="0"
       id="path3800"
       style="fill:none;stroke:#0000ff;stroke-width:0.01;stroke-linecap:round;stroke-linejoin:round;stroke-miterlimit:4;stroke-dasharray:none;stroke-opacity:1"
       d="m 494.2508,420.08977 c 0,0.57997 -0.47025,1.04987 -1.04987,1.04987 -0.57996,0 -1.05022,-0.4699 -1.05022,-1.04987 0,-0.57997 0.47026,-1.04987 1.05022,-1.04987 0.57962,0 1.04987,0.4699 1.04987,1.04987 z" />
    <path
       inkscape:connector-curvature="0"
       id="path3804"
       style="fill:none;stroke:#0000ff;stroke-width:0.01;stroke-linecap:round;stroke-linejoin:round;stroke-miterlimit:4;stroke-dasharray:none;stroke-opacity:1"
       d="m 482.07083,402.53933 c 0,0.57997 -0.47025,1.04987 -1.04987,1.04987 -0.57996,0 -1.05022,-0.4699 -1.05022,-1.04987 0,-0.57997 0.47026,-1.04987 1.05022,-1.04987 0.57962,0 1.04987,0.4699 1.04987,1.04987 z" />
    <path
       inkscape:connector-curvature="0"
       id="path3808"
       style="fill:none;stroke:#0000ff;stroke-width:0.01;stroke-linecap:round;stroke-linejoin:round;stroke-miterlimit:4;stroke-dasharray:none;stroke-opacity:1"
       d="m 476.66021,438.82164 c 0,0.57997 -0.47025,1.04987 -1.04987,1.04987 -0.57996,0 -1.05022,-0.4699 -1.05022,-1.04987 0,-0.57997 0.47026,-1.04987 1.05022,-1.04987 0.57962,0 1.04987,0.4699 1.04987,1.04987 z" />
    <path
       inkscape:connector-curvature="0"
       id="path3920"
       style="fill:none;stroke:#0000ff;stroke-width:0.01;stroke-linecap:round;stroke-linejoin:round;stroke-miterlimit:4;stroke-dasharray:none;stroke-opacity:1"
       d="m 483.70317,474.63359 c -0.52176,0 -1.03964,-0.13617 -1.49966,-0.40181 l -2.59891,-1.50001 c -15.62347,-9.01559 -28.48857,-10.45034 -40.92998,-11.83746 -3.2438,-0.36195 -6.58778,-0.73484 -9.88378,-1.23437 l -2.55094,-0.38735 c -1.46614,-0.22261 -2.54952,-1.48308 -2.54952,-2.96581 v -12.63085 c 0,-1.65594 -1.34232,-2.99861 -2.99861,-2.99861 h -59.97081 c -1.65665,0 -3.00002,-1.34303 -3.00002,-3.00002 v -81.49943 c 0,-1.35643 0.91052,-2.54423 2.22038,-2.89701 l 2.22038,-0.59761 c 29.36558,-7.90292 53.26698,-11.74467 73.07051,-11.74467 18.44463,0 33.3763,3.2325 45.64733,9.88236 l 1.57056,0.85125 c 0.96803,0.52423 1.57057,1.5367 1.57057,2.63737 v 49.41146 c 0,6.90986 7.11271,12.18248 23.05685,21.38716 l 2.5968,1.4993 c 1.43439,0.82832 1.92616,2.66206 1.09855,4.09716 l -24.47114,42.42788 c -0.39758,0.68933 -1.05269,1.19239 -1.82139,1.39876 -0.25541,0.0684 -0.51682,0.10231 -0.77717,0.10231 z" />
    <path
       sodipodi:nodetypes="ccccc"
       inkscape:connector-curvature="0"
       id="path3892-6"
       style="fill:none;stroke:#0000ff;stroke-width:0.01;stroke-linecap:butt;stroke-linejoin:miter;stroke-miterlimit:4;stroke-dasharray:none;stroke-opacity:1"
       d="m 366.33182,361.07199 c 0,4.98244 0,11.0379 0,13.85006 h 13.85006 c 0,-4.68224 0,-8.80191 0,-13.85006 z" />
    <path
       d="m 385.38182,361.07199 c 0,4.98244 0,11.0379 0,13.85006 h 13.85005 c 0,-4.68224 0,-8.80191 0,-13.85006 z"
       style="fill:none;stroke:#0000ff;stroke-width:0.01;stroke-linecap:butt;stroke-linejoin:miter;stroke-miterlimit:4;stroke-dasharray:none;stroke-opacity:1"
       id="path3892-6-7"
       inkscape:connector-curvature="0"
       sodipodi:nodetypes="ccccc" />
    <path
       d="m 404.43182,356.30999 c 0,4.98243 0,11.0379 0,13.85005 h 13.85005 c 0,-4.68223 0,-8.8019 0,-13.85005 z"
       style="fill:none;stroke:#0000ff;stroke-width:0.01;stroke-linecap:butt;stroke-linejoin:miter;stroke-miterlimit:4;stroke-dasharray:none;stroke-opacity:1"
       id="path3892-6-5"
       inkscape:connector-curvature="0"
       sodipodi:nodetypes="ccccc" />
    <path
       d="m 423.48178,353.92898 c 0,4.98244 0,11.0379 0,13.85006 h 13.85005 c 0,-4.68224 0,-8.80191 0,-13.85006 z"
       style="fill:none;stroke:#0000ff;stroke-width:0.01;stroke-linecap:butt;stroke-linejoin:miter;stroke-miterlimit:4;stroke-dasharray:none;stroke-opacity:1"
       id="path3892-6-3"
       inkscape:connector-curvature="0"
       sodipodi:nodetypes="ccccc" />
    <path
       d="m 442.53178,356.30999 c 0,4.98243 0,11.0379 0,13.85005 h 13.85005 c 0,-4.68223 0,-8.8019 0,-13.85005 z"
       style="fill:none;stroke:#0000ff;stroke-width:0.01;stroke-linecap:butt;stroke-linejoin:miter;stroke-miterlimit:4;stroke-dasharray:none;stroke-opacity:1"
       id="path3892-6-56"
       inkscape:connector-curvature="0"
       sodipodi:nodetypes="ccccc" />
    <path
       d="m 461.58178,358.69099 c 0,4.98244 0,11.0379 0,13.85005 h 13.85005 c 0,-4.68223 0,-8.8019 0,-13.85005 z"
       style="fill:none;stroke:#0000ff;stroke-width:0.01;stroke-linecap:butt;stroke-linejoin:miter;stroke-miterlimit:4;stroke-dasharray:none;stroke-opacity:1"
       id="path3892-6-2"
       inkscape:connector-curvature="0"
       sodipodi:nodetypes="ccccc" />
    <path
       d="m 366.33182,380.12199 c 0,4.98244 0,11.0379 0,13.85006 h 13.85005 c 0,-4.68224 0,-8.80191 0,-13.85006 z"
       style="fill:none;stroke:#0000ff;stroke-width:0.01;stroke-linecap:butt;stroke-linejoin:miter;stroke-miterlimit:4;stroke-dasharray:none;stroke-opacity:1"
       id="path3892-6-9"
       inkscape:connector-curvature="0"
       sodipodi:nodetypes="ccccc" />
    <path
       d="m 385.38182,380.12199 c 0,4.98244 0,11.0379 0,13.85006 h 13.85005 c 0,-4.68224 0,-8.80191 0,-13.85006 z"
       style="fill:none;stroke:#0000ff;stroke-width:0.01;stroke-linecap:butt;stroke-linejoin:miter;stroke-miterlimit:4;stroke-dasharray:none;stroke-opacity:1"
       id="path3892-6-1"
       inkscape:connector-curvature="0"
       sodipodi:nodetypes="ccccc" />
    <path
       d="m 404.43182,375.35999 c 0,4.98243 0,11.0379 0,13.85005 h 13.85005 c 0,-4.68224 0,-8.8019 0,-13.85005 z"
       style="fill:none;stroke:#0000ff;stroke-width:0.01;stroke-linecap:butt;stroke-linejoin:miter;stroke-miterlimit:4;stroke-dasharray:none;stroke-opacity:1"
       id="path3892-6-27"
       inkscape:connector-curvature="0"
       sodipodi:nodetypes="ccccc" />
    <path
       d="m 423.48178,372.97898 c 0,4.98244 0,11.0379 0,13.85006 h 13.85005 c 0,-4.68224 0,-8.80191 0,-13.85006 z"
       style="fill:none;stroke:#0000ff;stroke-width:0.01;stroke-linecap:butt;stroke-linejoin:miter;stroke-miterlimit:4;stroke-dasharray:none;stroke-opacity:1"
       id="path3892-6-0"
       inkscape:connector-curvature="0"
       sodipodi:nodetypes="ccccc" />
    <path
       d="m 442.53178,375.35999 c 0,4.98243 0,11.0379 0,13.85005 h 13.85005 c 0,-4.68224 0,-8.8019 0,-13.85005 z"
       style="fill:none;stroke:#0000ff;stroke-width:0.01;stroke-linecap:butt;stroke-linejoin:miter;stroke-miterlimit:4;stroke-dasharray:none;stroke-opacity:1"
       id="path3892-6-93"
       inkscape:connector-curvature="0"
       sodipodi:nodetypes="ccccc" />
    <path
       d="m 461.58178,377.74099 c 0,4.98244 0,11.0379 0,13.85005 h 13.85005 c 0,-4.68223 0,-8.8019 0,-13.85005 z"
       style="fill:none;stroke:#0000ff;stroke-width:0.01;stroke-linecap:butt;stroke-linejoin:miter;stroke-miterlimit:4;stroke-dasharray:none;stroke-opacity:1"
       id="path3892-6-6"
       inkscape:connector-curvature="0"
       sodipodi:nodetypes="ccccc" />
    <path
       d="m 366.33182,399.17199 c 0,4.98244 0,11.0379 0,13.85006 h 13.85005 c 0,-4.68224 0,-8.80191 0,-13.85006 z"
       style="fill:none;stroke:#0000ff;stroke-width:0.01;stroke-linecap:butt;stroke-linejoin:miter;stroke-miterlimit:4;stroke-dasharray:none;stroke-opacity:1"
       id="path3892-6-06"
       inkscape:connector-curvature="0"
       sodipodi:nodetypes="ccccc" />
    <path
       d="m 385.38182,399.17199 c 0,4.98244 0,11.0379 0,13.85006 h 13.85005 c 0,-4.68224 0,-8.80191 0,-13.85006 z"
       style="fill:none;stroke:#0000ff;stroke-width:0.01;stroke-linecap:butt;stroke-linejoin:miter;stroke-miterlimit:4;stroke-dasharray:none;stroke-opacity:1"
       id="path3892-6-26"
       inkscape:connector-curvature="0"
       sodipodi:nodetypes="ccccc" />
    <path
       d="m 404.43182,394.40998 c 0,4.98244 0,11.03791 0,13.85006 h 13.85005 c 0,-4.68224 0,-8.8019 0,-13.85006 z"
       style="fill:none;stroke:#0000ff;stroke-width:0.01;stroke-linecap:butt;stroke-linejoin:miter;stroke-miterlimit:4;stroke-dasharray:none;stroke-opacity:1"
       id="path3892-6-18"
       inkscape:connector-curvature="0"
       sodipodi:nodetypes="ccccc" />
    <path
       d="m 423.48178,392.02898 c 0,4.98244 0,11.0379 0,13.85006 h 13.85005 c 0,-4.68224 0,-8.80191 0,-13.85006 z"
       style="fill:none;stroke:#0000ff;stroke-width:0.01;stroke-linecap:butt;stroke-linejoin:miter;stroke-miterlimit:4;stroke-dasharray:none;stroke-opacity:1"
       id="path3892-6-79"
       inkscape:connector-curvature="0"
       sodipodi:nodetypes="ccccc" />
    <path
       d="m 442.53178,394.40998 c 0,4.98244 0,11.03791 0,13.85006 h 13.85005 c 0,-4.68224 0,-8.8019 0,-13.85006 z"
       style="fill:none;stroke:#0000ff;stroke-width:0.01;stroke-linecap:butt;stroke-linejoin:miter;stroke-miterlimit:4;stroke-dasharray:none;stroke-opacity:1"
       id="path3892-6-20"
       inkscape:connector-curvature="0"
       sodipodi:nodetypes="ccccc" />
    <path
       d="m 461.58178,396.79099 c 0,4.98244 0,11.0379 0,13.85005 h 13.85005 c 0,-4.68223 0,-8.8019 0,-13.85005 z"
       style="fill:none;stroke:#0000ff;stroke-width:0.01;stroke-linecap:butt;stroke-linejoin:miter;stroke-miterlimit:4;stroke-dasharray:none;stroke-opacity:1"
       id="path3892-6-23"
       inkscape:connector-curvature="0"
       sodipodi:nodetypes="ccccc" />
    <path
       d="m 366.33182,418.22199 c 0,4.98244 0,11.0379 0,13.85006 h 13.85005 c 0,-4.68224 0,-8.80191 0,-13.85006 z"
       style="fill:none;stroke:#0000ff;stroke-width:0.01;stroke-linecap:butt;stroke-linejoin:miter;stroke-miterlimit:4;stroke-dasharray:none;stroke-opacity:1"
       id="path3892-6-75"
       inkscape:connector-curvature="0"
       sodipodi:nodetypes="ccccc" />
    <path
       d="m 385.38182,418.22199 c 0,4.98244 0,11.0379 0,13.85006 h 13.85005 c 0,-4.68224 0,-8.80191 0,-13.85006 z"
       style="fill:none;stroke:#0000ff;stroke-width:0.01;stroke-linecap:butt;stroke-linejoin:miter;stroke-miterlimit:4;stroke-dasharray:none;stroke-opacity:1"
       id="path3892-6-92"
       inkscape:connector-curvature="0"
       sodipodi:nodetypes="ccccc" />
    <path
       d="m 404.43182,413.45998 c 0,4.98244 0,11.03791 0,13.85006 h 13.85005 c 0,-4.68224 0,-8.8019 0,-13.85006 z"
       style="fill:none;stroke:#0000ff;stroke-width:0.01;stroke-linecap:butt;stroke-linejoin:miter;stroke-miterlimit:4;stroke-dasharray:none;stroke-opacity:1"
       id="path3892-6-28"
       inkscape:connector-curvature="0"
       sodipodi:nodetypes="ccccc" />
    <path
       d="m 423.48178,411.07898 c 0,4.98244 0,11.0379 0,13.85006 h 13.85005 c 0,-4.68224 0,-8.80191 0,-13.85006 z"
       style="fill:none;stroke:#0000ff;stroke-width:0.01;stroke-linecap:butt;stroke-linejoin:miter;stroke-miterlimit:4;stroke-dasharray:none;stroke-opacity:1"
       id="path3892-6-97"
       inkscape:connector-curvature="0"
       sodipodi:nodetypes="ccccc" />
    <path
       d="m 442.53178,413.45998 c 0,4.98244 0,11.03791 0,13.85006 h 13.85005 c 0,-4.68224 0,-8.8019 0,-13.85006 z"
       style="fill:none;stroke:#0000ff;stroke-width:0.01;stroke-linecap:butt;stroke-linejoin:miter;stroke-miterlimit:4;stroke-dasharray:none;stroke-opacity:1"
       id="path3892-6-36"
       inkscape:connector-curvature="0"
       sodipodi:nodetypes="ccccc" />
    <path
       d="m 461.58178,415.84099 c 0,4.98244 0,11.0379 0,13.85005 h 13.85005 c 0,-4.68223 0,-8.8019 0,-13.85005 z"
       style="fill:none;stroke:#0000ff;stroke-width:0.01;stroke-linecap:butt;stroke-linejoin:miter;stroke-miterlimit:4;stroke-dasharray:none;stroke-opacity:1"
       id="path3892-6-12"
       inkscape:connector-curvature="0"
       sodipodi:nodetypes="ccccc" />
    <path
       d="m 433.00678,434.89099 c 0,4.98244 0,11.0379 0,13.85005 h 13.85005 c 0,-4.68223 0,-8.8019 0,-13.85005 z"
       style="fill:none;stroke:#0000ff;stroke-width:0.01;stroke-linecap:butt;stroke-linejoin:miter;stroke-miterlimit:4;stroke-dasharray:none;stroke-opacity:1"
       id="path3892-6-931"
       inkscape:connector-curvature="0"
       sodipodi:nodetypes="ccccc" />
    <path
       d="m 452.05678,437.27199 c 0,4.98244 0,11.0379 0,13.85006 h 13.85005 c 0,-4.68224 0,-8.80191 0,-13.85006 z"
       style="fill:none;stroke:#0000ff;stroke-width:0.01;stroke-linecap:butt;stroke-linejoin:miter;stroke-miterlimit:4;stroke-dasharray:none;stroke-opacity:1"
       id="path3892-6-94"
       inkscape:connector-curvature="0"
       sodipodi:nodetypes="ccccc" />
    <path
       d="m 487.37534,426.49925 c -2.49122,4.31492 -5.51895,9.5591 -6.92503,11.9945 l 11.9945,6.92503 c 2.34112,-4.05494 4.40095,-7.62268 6.92503,-11.9945 z"
       style="fill:none;stroke:#0000ff;stroke-width:0.01;stroke-linecap:butt;stroke-linejoin:miter;stroke-miterlimit:4;stroke-dasharray:none;stroke-opacity:1"
       id="path3892-6-78"
       inkscape:connector-curvature="0"
       sodipodi:nodetypes="ccccc" />
    <path
       d="m 477.86092,442.97886 c -2.49122,4.31492 -5.51895,9.5591 -6.92503,11.9945 l 11.9945,6.92502 c 2.34112,-4.05493 4.40096,-7.62267 6.92503,-11.9945 z"
       style="fill:none;stroke:#0000ff;stroke-width:0.01;stroke-linecap:butt;stroke-linejoin:miter;stroke-miterlimit:4;stroke-dasharray:none;stroke-opacity:1"
       id="path3892-6-78-4"
       inkscape:connector-curvature="0"
       sodipodi:nodetypes="ccccc" />
    <g
       clip-path="url(#clipPath4666)"
       id="g4662"
       style="stroke:#0000ff;stroke-opacity:1;stroke-width:0.02834646;stroke-miterlimit:4;stroke-dasharray:none"
       transform="matrix(-0.35277777,0,0,-0.35277777,357.82275,474.73829)">
      <g
         transform="translate(14.3381,107.5038)"
         id="g4668"
         style="stroke:#0000ff;stroke-opacity:1;stroke-width:0.02834646;stroke-miterlimit:4;stroke-dasharray:none">
        <path
           inkscape:connector-curvature="0"
           id="path4670"
           style="fill:none;stroke:#0000ff;stroke-width:0.02834646;stroke-linecap:round;stroke-linejoin:round;stroke-miterlimit:4;stroke-dasharray:none;stroke-opacity:1"
           d="m 0,0 c 0,-1.644 -1.333,-2.976 -2.976,-2.976 -1.644,0 -2.977,1.332 -2.977,2.976 0,1.644 1.333,2.976 2.977,2.976 C -1.333,2.976 0,1.644 0,0 Z" />
      </g>
      <g
         transform="translate(200.7756,54.024)"
         id="g4672"
         style="stroke:#0000ff;stroke-opacity:1;stroke-width:0.02834646;stroke-miterlimit:4;stroke-dasharray:none">
        <path
           inkscape:connector-curvature="0"
           id="path4674"
           style="fill:none;stroke:#0000ff;stroke-width:0.02834646;stroke-linecap:round;stroke-linejoin:round;stroke-miterlimit:4;stroke-dasharray:none;stroke-opacity:1"
           d="m 0,0 c 0,-1.644 -1.333,-2.976 -2.976,-2.976 -1.644,0 -2.977,1.332 -2.977,2.976 0,1.644 1.333,2.976 2.977,2.976 C -1.333,2.976 0,1.644 0,0 Z" />
      </g>
      <g
         transform="translate(359.5881,12.1913)"
         id="g4676"
         style="stroke:#0000ff;stroke-opacity:1;stroke-width:0.02834646;stroke-miterlimit:4;stroke-dasharray:none">
        <path
           inkscape:connector-curvature="0"
           id="path4678"
           style="fill:none;stroke:#0000ff;stroke-width:0.02834646;stroke-linecap:round;stroke-linejoin:round;stroke-miterlimit:4;stroke-dasharray:none;stroke-opacity:1"
           d="m 0,0 c 0,-1.644 -1.333,-2.976 -2.976,-2.976 -1.644,0 -2.977,1.332 -2.977,2.976 0,1.644 1.333,2.976 2.977,2.976 C -1.333,2.976 0,1.644 0,0 Z" />
      </g>
      <g
         transform="translate(426.3173,128.108)"
         id="g4680"
         style="stroke:#0000ff;stroke-opacity:1;stroke-width:0.02834646;stroke-miterlimit:4;stroke-dasharray:none">
        <path
           inkscape:connector-curvature="0"
           id="path4682"
           style="fill:none;stroke:#0000ff;stroke-width:0.02834646;stroke-linecap:round;stroke-linejoin:round;stroke-miterlimit:4;stroke-dasharray:none;stroke-opacity:1"
           d="m 0,0 c 0,-1.644 -1.333,-2.976 -2.976,-2.976 -1.644,0 -2.977,1.332 -2.977,2.976 0,1.644 1.333,2.976 2.977,2.976 C -1.333,2.976 0,1.644 0,0 Z" />
      </g>
      <g
         transform="translate(351.5256,340.6601)"
         id="g4684"
         style="stroke:#0000ff;stroke-opacity:1;stroke-width:0.02834646;stroke-miterlimit:4;stroke-dasharray:none">
        <path
           inkscape:connector-curvature="0"
           id="path4686"
           style="fill:none;stroke:#0000ff;stroke-width:0.02834646;stroke-linecap:round;stroke-linejoin:round;stroke-miterlimit:4;stroke-dasharray:none;stroke-opacity:1"
           d="m 0,0 c 0,-1.644 -1.333,-2.976 -2.976,-2.976 -1.644,0 -2.977,1.332 -2.977,2.976 0,1.644 1.333,2.976 2.977,2.976 C -1.333,2.976 0,1.644 0,0 Z" />
      </g>
      <g
         transform="translate(293.252,363.8638)"
         id="g4688"
         style="stroke:#0000ff;stroke-opacity:1;stroke-width:0.02834646;stroke-miterlimit:4;stroke-dasharray:none">
        <path
           inkscape:connector-curvature="0"
           id="path4690"
           style="fill:none;stroke:#0000ff;stroke-width:0.02834646;stroke-linecap:round;stroke-linejoin:round;stroke-miterlimit:4;stroke-dasharray:none;stroke-opacity:1"
           d="m 0,0 c 0,-1.644 -1.333,-2.976 -2.976,-2.976 -1.644,0 -2.977,1.332 -2.977,2.976 0,1.644 1.333,2.976 2.977,2.976 C -1.333,2.976 0,1.644 0,0 Z" />
      </g>
      <g
         transform="translate(151.8589,365.6496)"
         id="g4692"
         style="stroke:#0000ff;stroke-opacity:1;stroke-width:0.02834646;stroke-miterlimit:4;stroke-dasharray:none">
        <path
           inkscape:connector-curvature="0"
           id="path4694"
           style="fill:none;stroke:#0000ff;stroke-width:0.02834646;stroke-linecap:round;stroke-linejoin:round;stroke-miterlimit:4;stroke-dasharray:none;stroke-opacity:1"
           d="m 0,0 c 0,-1.644 -1.333,-2.976 -2.976,-2.976 -1.644,0 -2.977,1.332 -2.977,2.976 0,1.644 1.333,2.976 2.977,2.976 C -1.333,2.976 0,1.644 0,0 Z" />
      </g>
      <g
         transform="translate(13.7756,335.0663)"
         id="g4696"
         style="stroke:#0000ff;stroke-opacity:1;stroke-width:0.02834646;stroke-miterlimit:4;stroke-dasharray:none">
        <path
           inkscape:connector-curvature="0"
           id="path4698"
           style="fill:none;stroke:#0000ff;stroke-width:0.02834646;stroke-linecap:round;stroke-linejoin:round;stroke-miterlimit:4;stroke-dasharray:none;stroke-opacity:1"
           d="m 0,0 c 0,-1.644 -1.333,-2.976 -2.976,-2.976 -1.644,0 -2.977,1.332 -2.977,2.976 0,1.644 1.333,2.976 2.977,2.976 C -1.333,2.976 0,1.644 0,0 Z" />
      </g>
      <g
         transform="translate(74.2756,275.5463)"
         id="g4700"
         style="stroke:#0000ff;stroke-opacity:1;stroke-width:0.02834646;stroke-miterlimit:4;stroke-dasharray:none">
        <path
           inkscape:connector-curvature="0"
           id="path4702"
           style="fill:none;stroke:#0000ff;stroke-width:0.02834646;stroke-linecap:round;stroke-linejoin:round;stroke-miterlimit:4;stroke-dasharray:none;stroke-opacity:1"
           d="m 0,0 c 0,-1.644 -1.333,-2.976 -2.976,-2.976 -1.644,0 -2.977,1.332 -2.977,2.976 0,1.644 1.333,2.976 2.977,2.976 C -1.333,2.976 0,1.644 0,0 Z" />
      </g>
      <g
         transform="translate(74.2756,167.5463)"
         id="g4704"
         style="stroke:#0000ff;stroke-opacity:1;stroke-width:0.02834646;stroke-miterlimit:4;stroke-dasharray:none">
        <path
           inkscape:connector-curvature="0"
           id="path4706"
           style="fill:none;stroke:#0000ff;stroke-width:0.02834646;stroke-linecap:round;stroke-linejoin:round;stroke-miterlimit:4;stroke-dasharray:none;stroke-opacity:1"
           d="m 0,0 c 0,-1.644 -1.333,-2.976 -2.976,-2.976 -1.644,0 -2.977,1.332 -2.977,2.976 0,1.644 1.333,2.976 2.977,2.976 C -1.333,2.976 0,1.644 0,0 Z" />
      </g>
      <g
         transform="translate(290.2756,177.6709)"
         id="g4708"
         style="stroke:#0000ff;stroke-opacity:1;stroke-width:0.02834646;stroke-miterlimit:4;stroke-dasharray:none">
        <path
           inkscape:connector-curvature="0"
           id="path4710"
           style="fill:none;stroke:#0000ff;stroke-width:0.02834646;stroke-linecap:round;stroke-linejoin:round;stroke-miterlimit:4;stroke-dasharray:none;stroke-opacity:1"
           d="m 0,0 c 0,-1.644 -1.333,-2.976 -2.976,-2.976 -1.644,0 -2.977,1.332 -2.977,2.976 0,1.644 1.333,2.976 2.977,2.976 C -1.333,2.976 0,1.644 0,0 Z" />
      </g>
      <g
         transform="translate(290.2756,285.6709)"
         id="g4712"
         style="stroke:#0000ff;stroke-opacity:1;stroke-width:0.02834646;stroke-miterlimit:4;stroke-dasharray:none">
        <path
           inkscape:connector-curvature="0"
           id="path4714"
           style="fill:none;stroke:#0000ff;stroke-width:0.02834646;stroke-linecap:round;stroke-linejoin:round;stroke-miterlimit:4;stroke-dasharray:none;stroke-opacity:1"
           d="m 0,0 c 0,-1.644 -1.333,-2.976 -2.976,-2.976 -1.644,0 -2.977,1.332 -2.977,2.976 0,1.644 1.333,2.976 2.977,2.976 C -1.333,2.976 0,1.644 0,0 Z" />
      </g>
      <g
         transform="translate(387.3015,154.9003)"
         id="g4716"
         style="stroke:#0000ff;stroke-opacity:1;stroke-width:0.02834646;stroke-miterlimit:4;stroke-dasharray:none">
        <path
           inkscape:connector-curvature="0"
           id="path4718"
           style="fill:none;stroke:#0000ff;stroke-width:0.02834646;stroke-linecap:round;stroke-linejoin:round;stroke-miterlimit:4;stroke-dasharray:none;stroke-opacity:1"
           d="m 0,0 c 0,-1.644 -1.333,-2.976 -2.976,-2.976 -1.644,0 -2.977,1.332 -2.977,2.976 0,1.644 1.333,2.976 2.977,2.976 C -1.333,2.976 0,1.644 0,0 Z" />
      </g>
      <g
         transform="translate(352.7756,204.6496)"
         id="g4720"
         style="stroke:#0000ff;stroke-opacity:1;stroke-width:0.02834646;stroke-miterlimit:4;stroke-dasharray:none">
        <path
           inkscape:connector-curvature="0"
           id="path4722"
           style="fill:none;stroke:#0000ff;stroke-width:0.02834646;stroke-linecap:round;stroke-linejoin:round;stroke-miterlimit:4;stroke-dasharray:none;stroke-opacity:1"
           d="m 0,0 c 0,-1.644 -1.333,-2.976 -2.976,-2.976 -1.644,0 -2.977,1.332 -2.977,2.976 0,1.644 1.333,2.976 2.977,2.976 C -1.333,2.976 0,1.644 0,0 Z" />
      </g>
      <g
         transform="translate(337.4384,101.8022)"
         id="g4724"
         style="stroke:#0000ff;stroke-opacity:1;stroke-width:0.02834646;stroke-miterlimit:4;stroke-dasharray:none">
        <path
           inkscape:connector-curvature="0"
           id="path4726"
           style="fill:none;stroke:#0000ff;stroke-width:0.02834646;stroke-linecap:round;stroke-linejoin:round;stroke-miterlimit:4;stroke-dasharray:none;stroke-opacity:1"
           d="m 0,0 c 0,-1.644 -1.333,-2.976 -2.976,-2.976 -1.644,0 -2.977,1.332 -2.977,2.976 0,1.644 1.333,2.976 2.977,2.976 C -1.333,2.976 0,1.644 0,0 Z" />
      </g>
      <g
         transform="translate(431.0216,136.4249)"
         id="g4728"
         style="stroke:#0000ff;stroke-opacity:1;stroke-width:0.02834646;stroke-miterlimit:4;stroke-dasharray:none">
        <path
           inkscape:connector-curvature="0"
           id="path4730"
           style="fill:none;stroke:#0000ff;stroke-width:0.02834646;stroke-linecap:round;stroke-linejoin:round;stroke-miterlimit:4;stroke-dasharray:none;stroke-opacity:1"
           d="m -430.734,-31.379 c 0,-4.697 3.808,-8.504 8.504,-8.504 h 169.996 c 4.695,0 8.5,-3.806 8.5,-8.5 v -35.804 c 0,-4.203 3.072,-7.776 7.227,-8.407 l 7.231,-1.098 c 9.343,-1.416 18.822,-2.473 28.017,-3.499 35.267,-3.932 71.735,-7.999 116.022,-33.555 l 7.367,-4.252 c 1.304,-0.753 2.772,-1.139 4.251,-1.139 0.738,0 1.479,0.096 2.203,0.29 2.179,0.585 4.036,2.011 5.163,3.965 L 3.115,-11.613 C 5.46,-7.546 4.066,-2.348 0,0 l -7.361,4.25 c -20.334,11.739 -35.587,21.22 -46.228,29.884 -1.357,1.105 -3.374,0.745 -4.249,-0.771 l -7.234,-12.527 c -0.783,-1.356 -2.516,-1.82 -3.871,-1.037 l -15.512,8.957 c -1.358,0.784 -1.824,2.521 -1.039,3.879 l 13.393,23.194 c 0.384,0.664 0.465,1.451 0.27,2.193 -0.588,2.236 -0.887,4.511 -0.887,6.853 v 140.064 c 0,3.12 -1.709,5.99 -4.453,7.476 l -4.452,2.413 c -33.18,17.981 -73.224,27.145 -122.226,27.952 -1.578,0.026 -2.877,-1.255 -2.877,-2.834 v -10.433 c 0,-1.573 -1.275,-2.848 -2.848,-2.848 h -30.304 c -1.573,0 -2.848,1.275 -2.848,2.848 v 9.209 c 0,1.642 -1.386,2.946 -3.023,2.829 -48.835,-3.477 -105.631,-14.034 -172.397,-32.002 l -6.294,-1.694 c -3.713,-1 -6.294,-4.366 -6.294,-8.212"
           sodipodi:nodetypes="csssscccccscccccccccccccsscccsssssscccc" />
      </g>
    </g>
  </g>
</svg>
