<?xml version="1.0" encoding="UTF-8" standalone="no"?>
<!-- Created with Inkscape (http://www.inkscape.org/) -->

<svg
   xmlns:dc="http://purl.org/dc/elements/1.1/"
   xmlns:cc="http://creativecommons.org/ns#"
   xmlns:rdf="http://www.w3.org/1999/02/22-rdf-syntax-ns#"
   xmlns:svg="http://www.w3.org/2000/svg"
   xmlns="http://www.w3.org/2000/svg"
   xmlns:sodipodi="http://sodipodi.sourceforge.net/DTD/sodipodi-0.dtd"
   xmlns:inkscape="http://www.inkscape.org/namespaces/inkscape"
   width="153.65646mm"
   height="133.87669mm"
   viewBox="0 0 153.65646 133.87669"
   version="1.1"
   id="svg9605"
   inkscape:version="0.92.2 2405546, 2018-03-11"
   sodipodi:docname="printBottom.svg">
  <defs
     id="defs9599">
    <clipPath
       id="clipPath2534"
       clipPathUnits="userSpaceOnUse">
      <path
         inkscape:connector-curvature="0"
         id="path2532"
         d="M 0,379.493 H 435.563 V 0 H 0 Z" />
    </clipPath>
  </defs>
  <sodipodi:namedview
     id="base"
     pagecolor="#ffffff"
     bordercolor="#666666"
     borderopacity="1.0"
     inkscape:pageopacity="0.0"
     inkscape:pageshadow="2"
     inkscape:zoom="0.98994949"
     inkscape:cx="378.47692"
     inkscape:cy="191.0042"
     inkscape:document-units="mm"
     inkscape:current-layer="layer1"
     showgrid="false"
     inkscape:window-width="2532"
     inkscape:window-height="1412"
     inkscape:window-x="12"
     inkscape:window-y="12"
     inkscape:window-maximized="1" />
  <metadata
     id="metadata9602">
    <rdf:RDF>
      <cc:Work
         rdf:about="">
        <dc:format>image/svg+xml</dc:format>
        <dc:type
           rdf:resource="http://purl.org/dc/dcmitype/StillImage" />
        <dc:title />
      </cc:Work>
    </rdf:RDF>
  </metadata>
  <g
     inkscape:label="Layer 1"
     inkscape:groupmode="layer"
     id="layer1"
     transform="translate(-4.8146237,-66.775936)">
    <g
       transform="matrix(-0.35277777,0,0,-0.35277777,158.47108,200.65263)"
       inkscape:label="iris-bottom-plate"
       id="g2526"
       style="stroke:#0000ff;stroke-opacity:1;stroke-width:0.02834646;stroke-miterlimit:4;stroke-dasharray:none">
      <g
         id="g2528"
         style="stroke:#0000ff;stroke-opacity:1;stroke-width:0.02834646;stroke-miterlimit:4;stroke-dasharray:none">
        <g
           clip-path="url(#clipPath2534)"
           id="g2530"
           style="stroke:#0000ff;stroke-opacity:1;stroke-width:0.02834646;stroke-miterlimit:4;stroke-dasharray:none">
          <g
             transform="translate(14.3381,107.5038)"
             id="g2536"
             style="stroke:#0000ff;stroke-opacity:1;stroke-width:0.02834646;stroke-miterlimit:4;stroke-dasharray:none">
            <path
               inkscape:connector-curvature="0"
               id="path2538"
               style="fill:none;stroke:#0000ff;stroke-width:0.02834646;stroke-linecap:round;stroke-linejoin:round;stroke-miterlimit:4;stroke-dasharray:none;stroke-opacity:1"
               d="m 0,0 c 0,-1.644 -1.333,-2.976 -2.976,-2.976 -1.644,0 -2.977,1.332 -2.977,2.976 0,1.644 1.333,2.976 2.977,2.976 C -1.333,2.976 0,1.644 0,0 Z" />
          </g>
          <g
             transform="translate(200.7756,54.024)"
             id="g2540"
             style="stroke:#0000ff;stroke-opacity:1;stroke-width:0.02834646;stroke-miterlimit:4;stroke-dasharray:none">
            <path
               inkscape:connector-curvature="0"
               id="path2542"
               style="fill:none;stroke:#0000ff;stroke-width:0.02834646;stroke-linecap:round;stroke-linejoin:round;stroke-miterlimit:4;stroke-dasharray:none;stroke-opacity:1"
               d="m 0,0 c 0,-1.644 -1.333,-2.976 -2.976,-2.976 -1.644,0 -2.977,1.332 -2.977,2.976 0,1.644 1.333,2.976 2.977,2.976 C -1.333,2.976 0,1.644 0,0 Z" />
          </g>
          <g
             transform="translate(359.5881,12.1913)"
             id="g2544"
             style="stroke:#0000ff;stroke-opacity:1;stroke-width:0.02834646;stroke-miterlimit:4;stroke-dasharray:none">
            <path
               inkscape:connector-curvature="0"
               id="path2546"
               style="fill:none;stroke:#0000ff;stroke-width:0.02834646;stroke-linecap:round;stroke-linejoin:round;stroke-miterlimit:4;stroke-dasharray:none;stroke-opacity:1"
               d="m 0,0 c 0,-1.644 -1.333,-2.976 -2.976,-2.976 -1.644,0 -2.977,1.332 -2.977,2.976 0,1.644 1.333,2.976 2.977,2.976 C -1.333,2.976 0,1.644 0,0 Z" />
          </g>
          <g
             transform="translate(426.3173,128.108)"
             id="g2548"
             style="stroke:#0000ff;stroke-opacity:1;stroke-width:0.02834646;stroke-miterlimit:4;stroke-dasharray:none">
            <path
               inkscape:connector-curvature="0"
               id="path2550"
               style="fill:none;stroke:#0000ff;stroke-width:0.02834646;stroke-linecap:round;stroke-linejoin:round;stroke-miterlimit:4;stroke-dasharray:none;stroke-opacity:1"
               d="m 0,0 c 0,-1.644 -1.333,-2.976 -2.976,-2.976 -1.644,0 -2.977,1.332 -2.977,2.976 0,1.644 1.333,2.976 2.977,2.976 C -1.333,2.976 0,1.644 0,0 Z" />
          </g>
          <g
             transform="translate(351.5256,340.6601)"
             id="g2552"
             style="stroke:#0000ff;stroke-opacity:1;stroke-width:0.02834646;stroke-miterlimit:4;stroke-dasharray:none">
            <path
               inkscape:connector-curvature="0"
               id="path2554"
               style="fill:none;stroke:#0000ff;stroke-width:0.02834646;stroke-linecap:round;stroke-linejoin:round;stroke-miterlimit:4;stroke-dasharray:none;stroke-opacity:1"
               d="m 0,0 c 0,-1.644 -1.333,-2.976 -2.976,-2.976 -1.644,0 -2.977,1.332 -2.977,2.976 0,1.644 1.333,2.976 2.977,2.976 C -1.333,2.976 0,1.644 0,0 Z" />
          </g>
          <g
             transform="translate(293.252,363.8638)"
             id="g2556"
             style="stroke:#0000ff;stroke-opacity:1;stroke-width:0.02834646;stroke-miterlimit:4;stroke-dasharray:none">
            <path
               inkscape:connector-curvature="0"
               id="path2558"
               style="fill:none;stroke:#0000ff;stroke-width:0.02834646;stroke-linecap:round;stroke-linejoin:round;stroke-miterlimit:4;stroke-dasharray:none;stroke-opacity:1"
               d="m 0,0 c 0,-1.644 -1.333,-2.976 -2.976,-2.976 -1.644,0 -2.977,1.332 -2.977,2.976 0,1.644 1.333,2.976 2.977,2.976 C -1.333,2.976 0,1.644 0,0 Z" />
          </g>
          <g
             transform="translate(151.8589,365.6496)"
             id="g2560"
             style="stroke:#0000ff;stroke-opacity:1;stroke-width:0.02834646;stroke-miterlimit:4;stroke-dasharray:none">
            <path
               inkscape:connector-curvature="0"
               id="path2562"
               style="fill:none;stroke:#0000ff;stroke-width:0.02834646;stroke-linecap:round;stroke-linejoin:round;stroke-miterlimit:4;stroke-dasharray:none;stroke-opacity:1"
               d="m 0,0 c 0,-1.644 -1.333,-2.976 -2.976,-2.976 -1.644,0 -2.977,1.332 -2.977,2.976 0,1.644 1.333,2.976 2.977,2.976 C -1.333,2.976 0,1.644 0,0 Z" />
          </g>
          <g
             transform="translate(13.7756,335.0663)"
             id="g2564"
             style="stroke:#0000ff;stroke-opacity:1;stroke-width:0.02834646;stroke-miterlimit:4;stroke-dasharray:none">
            <path
               inkscape:connector-curvature="0"
               id="path2566"
               style="fill:none;stroke:#0000ff;stroke-width:0.02834646;stroke-linecap:round;stroke-linejoin:round;stroke-miterlimit:4;stroke-dasharray:none;stroke-opacity:1"
               d="m 0,0 c 0,-1.644 -1.333,-2.976 -2.976,-2.976 -1.644,0 -2.977,1.332 -2.977,2.976 0,1.644 1.333,2.976 2.977,2.976 C -1.333,2.976 0,1.644 0,0 Z" />
          </g>
          <g
             transform="translate(74.2756,275.5463)"
             id="g2568"
             style="stroke:#0000ff;stroke-opacity:1;stroke-width:0.02834646;stroke-miterlimit:4;stroke-dasharray:none">
            <path
               inkscape:connector-curvature="0"
               id="path2570"
               style="fill:none;stroke:#0000ff;stroke-width:0.02834646;stroke-linecap:round;stroke-linejoin:round;stroke-miterlimit:4;stroke-dasharray:none;stroke-opacity:1"
               d="m 0,0 c 0,-1.644 -1.333,-2.976 -2.976,-2.976 -1.644,0 -2.977,1.332 -2.977,2.976 0,1.644 1.333,2.976 2.977,2.976 C -1.333,2.976 0,1.644 0,0 Z" />
          </g>
          <g
             transform="translate(74.2756,167.5463)"
             id="g2572"
             style="stroke:#0000ff;stroke-opacity:1;stroke-width:0.02834646;stroke-miterlimit:4;stroke-dasharray:none">
            <path
               inkscape:connector-curvature="0"
               id="path2574"
               style="fill:none;stroke:#0000ff;stroke-width:0.02834646;stroke-linecap:round;stroke-linejoin:round;stroke-miterlimit:4;stroke-dasharray:none;stroke-opacity:1"
               d="m 0,0 c 0,-1.644 -1.333,-2.976 -2.976,-2.976 -1.644,0 -2.977,1.332 -2.977,2.976 0,1.644 1.333,2.976 2.977,2.976 C -1.333,2.976 0,1.644 0,0 Z" />
          </g>
          <g
             transform="translate(290.2756,177.6709)"
             id="g2576"
             style="stroke:#0000ff;stroke-opacity:1;stroke-width:0.02834646;stroke-miterlimit:4;stroke-dasharray:none">
            <path
               inkscape:connector-curvature="0"
               id="path2578"
               style="fill:none;stroke:#0000ff;stroke-width:0.02834646;stroke-linecap:round;stroke-linejoin:round;stroke-miterlimit:4;stroke-dasharray:none;stroke-opacity:1"
               d="m 0,0 c 0,-1.644 -1.333,-2.976 -2.976,-2.976 -1.644,0 -2.977,1.332 -2.977,2.976 0,1.644 1.333,2.976 2.977,2.976 C -1.333,2.976 0,1.644 0,0 Z" />
          </g>
          <g
             transform="translate(290.2756,285.6709)"
             id="g2580"
             style="stroke:#0000ff;stroke-opacity:1;stroke-width:0.02834646;stroke-miterlimit:4;stroke-dasharray:none">
            <path
               inkscape:connector-curvature="0"
               id="path2582"
               style="fill:none;stroke:#0000ff;stroke-width:0.02834646;stroke-linecap:round;stroke-linejoin:round;stroke-miterlimit:4;stroke-dasharray:none;stroke-opacity:1"
               d="m 0,0 c 0,-1.644 -1.333,-2.976 -2.976,-2.976 -1.644,0 -2.977,1.332 -2.977,2.976 0,1.644 1.333,2.976 2.977,2.976 C -1.333,2.976 0,1.644 0,0 Z" />
          </g>
          <g
             transform="translate(387.3015,154.9003)"
             id="g2584"
             style="stroke:#0000ff;stroke-opacity:1;stroke-width:0.02834646;stroke-miterlimit:4;stroke-dasharray:none">
            <path
               inkscape:connector-curvature="0"
               id="path2586"
               style="fill:none;stroke:#0000ff;stroke-width:0.02834646;stroke-linecap:round;stroke-linejoin:round;stroke-miterlimit:4;stroke-dasharray:none;stroke-opacity:1"
               d="m 0,0 c 0,-1.644 -1.333,-2.976 -2.976,-2.976 -1.644,0 -2.977,1.332 -2.977,2.976 0,1.644 1.333,2.976 2.977,2.976 C -1.333,2.976 0,1.644 0,0 Z" />
          </g>
          <g
             transform="translate(352.7756,204.6496)"
             id="g2588"
             style="stroke:#0000ff;stroke-opacity:1;stroke-width:0.02834646;stroke-miterlimit:4;stroke-dasharray:none">
            <path
               inkscape:connector-curvature="0"
               id="path2590"
               style="fill:none;stroke:#0000ff;stroke-width:0.02834646;stroke-linecap:round;stroke-linejoin:round;stroke-miterlimit:4;stroke-dasharray:none;stroke-opacity:1"
               d="m 0,0 c 0,-1.644 -1.333,-2.976 -2.976,-2.976 -1.644,0 -2.977,1.332 -2.977,2.976 0,1.644 1.333,2.976 2.977,2.976 C -1.333,2.976 0,1.644 0,0 Z" />
          </g>
          <g
             transform="translate(337.4384,101.8022)"
             id="g2592"
             style="stroke:#0000ff;stroke-opacity:1;stroke-width:0.02834646;stroke-miterlimit:4;stroke-dasharray:none">
            <path
               inkscape:connector-curvature="0"
               id="path2594"
               style="fill:none;stroke:#0000ff;stroke-width:0.02834646;stroke-linecap:round;stroke-linejoin:round;stroke-miterlimit:4;stroke-dasharray:none;stroke-opacity:1"
               d="m 0,0 c 0,-1.644 -1.333,-2.976 -2.976,-2.976 -1.644,0 -2.977,1.332 -2.977,2.976 0,1.644 1.333,2.976 2.977,2.976 C -1.333,2.976 0,1.644 0,0 Z" />
          </g>
          <g
             transform="translate(431.0216,136.4249)"
             id="g2596"
             style="stroke:#0000ff;stroke-opacity:1;stroke-width:0.02834646;stroke-miterlimit:4;stroke-dasharray:none">
            <path
               inkscape:connector-curvature="0"
               id="path2598"
               style="fill:none;stroke:#0000ff;stroke-width:0.02834646;stroke-linecap:round;stroke-linejoin:round;stroke-miterlimit:4;stroke-dasharray:none;stroke-opacity:1"
               d="m 0,0 -7.361,4.25 c -20.334,11.739 -35.587,21.22 -46.228,29.884 -1.357,1.105 -3.374,0.745 -4.249,-0.771 l -7.234,-12.527 c -0.783,-1.356 -2.516,-1.82 -3.871,-1.037 l -15.512,8.957 c -1.358,0.784 -1.824,2.521 -1.039,3.879 l 13.393,23.194 c 0.384,0.664 0.465,1.451 0.27,2.193 -0.588,2.236 -0.887,4.511 -0.887,6.853 v 140.064 c 0,3.12 -1.709,5.99 -4.453,7.476 l -4.452,2.413 c -33.18,17.981 -73.224,27.145 -122.226,27.952 -1.578,0.026 -2.877,-1.255 -2.877,-2.834 v -10.433 c 0,-1.573 -1.275,-2.848 -2.848,-2.848 h -30.304 c -1.573,0 -2.848,1.275 -2.848,2.848 v 9.209 c 0,1.642 -1.386,2.946 -3.023,2.829 -48.835,-3.477 -105.631,-14.034 -172.397,-32.002 l -6.294,-1.694 c -3.713,-1 -6.294,-4.366 -6.294,-8.212 V -31.379 c 0,-4.697 3.808,-8.504 8.504,-8.504 h 169.996 c 4.695,0 8.5,-3.806 8.5,-8.5 v -35.804 c 0,-4.203 3.072,-7.776 7.227,-8.407 l 7.231,-1.098 c 9.343,-1.416 18.822,-2.473 28.017,-3.499 35.267,-3.932 71.735,-7.999 116.022,-33.555 l 7.367,-4.252 c 1.304,-0.753 2.772,-1.139 4.251,-1.139 0.738,0 1.479,0.096 2.203,0.29 2.179,0.585 4.036,2.011 5.163,3.965 L 3.115,-11.613 C 5.46,-7.546 4.066,-2.348 0,0 Z" />
          </g>
        </g>
      </g>
    </g>
  </g>
</svg>
